<?xml version="1.0" encoding="utf-8"?>
<!-- Generator: Adobe Illustrator 15.1.0, SVG Export Plug-In . SVG Version: 6.00 Build 0)  -->
<!DOCTYPE svg PUBLIC "-//W3C//DTD SVG 1.1//EN" "http://www.w3.org/Graphics/SVG/1.1/DTD/svg11.dtd">
<svg version="1.1" id="layer_icon" xmlns="http://www.w3.org/2000/svg" xmlns:xlink="http://www.w3.org/1999/xlink" x="0px" y="0px"
	 width="112px" height="6px" viewBox="0 0 112 6" enable-background="new 0 0 112 6" xml:space="preserve">
<path id="wavy-line" fill="#2591F7" d="M56,4c1.334,0,1.964-0.378,3.293-1.707C60.964,0.622,62,0,64,0s3.036,0.622,4.707,2.293
	C70.036,3.622,70.666,4,72,4s1.964-0.378,3.293-1.707C76.964,0.622,78,0,80,0s3.036,0.622,4.707,2.293C86.036,3.622,86.666,4,88,4
	s1.964-0.378,3.293-1.707C92.964,0.622,94,0,96,0s3.036,0.622,4.707,2.293C102.036,3.622,102.666,4,104,4s1.964-0.378,3.293-1.707
	C108.964,0.622,110,0,112,0v2c-1.334,0-1.964,0.378-3.293,1.707C107.036,5.378,106,6,104,6s-3.036-0.622-4.707-2.293
	C97.964,2.378,97.334,2,96,2s-1.964,0.378-3.293,1.707C91.036,5.378,90,6,88,6s-3.036-0.622-4.707-2.293C81.964,2.378,81.334,2,80,2
	s-1.964,0.378-3.293,1.707C75.036,5.378,74,6,72,6s-3.036-0.622-4.707-2.293C65.964,2.378,65.334,2,64,2s-1.964,0.378-3.293,1.707
	C59.036,5.378,58,6,56,6c-2,0-3.036-0.622-4.707-2.293C49.964,2.378,49.334,2,48,2s-1.964,0.378-3.293,1.707C43.036,5.378,42,6,40,6
	s-3.036-0.622-4.707-2.293C33.964,2.378,33.334,2,32,2s-1.964,0.378-3.293,1.707C27.036,5.378,26,6,24,6s-3.036-0.622-4.707-2.293
	C17.964,2.378,17.334,2,16,2s-1.964,0.378-3.293,1.707C11.036,5.378,10,6,8,6S4.964,5.378,3.293,3.707C1.964,2.378,1.334,2,0,2V0
	c2,0,3.036,0.622,4.707,2.293C6.036,3.622,6.666,4,8,4s1.964-0.378,3.293-1.707C12.964,0.622,14,0,16,0s3.036,0.622,4.707,2.293
	C22.036,3.622,22.666,4,24,4s1.964-0.378,3.293-1.707C28.964,0.622,30,0,32,0s3.036,0.622,4.707,2.293C38.036,3.622,38.666,4,40,4
	s1.964-0.378,3.293-1.707C44.964,0.622,46,0,48,0s3.036,0.622,4.707,2.293C54.036,3.622,54.666,4,56,4z"/>
</svg>
