<svg class="svg-icon" style="width: 1em; height: 1em;vertical-align: middle;fill: currentColor;overflow: hidden;" viewBox="0 0 1024 1024" version="1.1" xmlns="http://www.w3.org/2000/svg"><path d="M800 544l-576 0C204.8 544 192 531.2 192 512l0 0c0-19.2 12.8-32 32-32l576 0C819.2 480 832 492.8 832 512l0 0C832 531.2 819.2 544 800 544z"  /><path d="M800 352l-576 0C204.8 352 192 339.2 192 320l0 0c0-19.2 12.8-32 32-32l576 0C819.2 288 832 300.8 832 320l0 0C832 339.2 819.2 352 800 352z"  /><path d="M800 736l-576 0C204.8 736 192 723.2 192 704l0 0c0-19.2 12.8-32 32-32l576 0c19.2 0 32 12.8 32 32l0 0C832 723.2 819.2 736 800 736z"  /></svg>